<mxfile host="app.diagrams.net" modified="2020-10-11T13:43:32.840Z" agent="5.0 (Macintosh; Intel Mac OS X 10_14_6) AppleWebKit/537.36 (KHTML, like Gecko) Chrome/86.0.4240.75 Safari/537.36" etag="9tA1UU7bOQf_Lzs1XOVA" version="13.7.9" type="github">
  <diagram name="Page-1" id="74e2e168-ea6b-b213-b513-2b3c1d86103e">
    <mxGraphModel dx="1310" dy="703" grid="1" gridSize="10" guides="1" tooltips="1" connect="1" arrows="1" fold="1" page="1" pageScale="1" pageWidth="1100" pageHeight="850" background="#ffffff" math="0" shadow="0">
      <root>
        <mxCell id="0" />
        <mxCell id="1" parent="0" />
        <mxCell id="77e6c97f196da883-1" value="Form Review Customization/Creation" style="swimlane;html=1;childLayout=stackLayout;startSize=20;rounded=0;shadow=0;labelBackgroundColor=none;strokeWidth=1;fontFamily=Verdana;fontSize=8;align=center;" parent="1" vertex="1">
          <mxGeometry x="70" y="40" width="740" height="670" as="geometry" />
        </mxCell>
        <mxCell id="77e6c97f196da883-2" value="Views" style="swimlane;html=1;startSize=20;" parent="77e6c97f196da883-1" vertex="1">
          <mxGeometry y="20" width="390" height="650" as="geometry" />
        </mxCell>
        <mxCell id="ptDqCQcaFD3RVTo1rp9H-31" style="edgeStyle=orthogonalEdgeStyle;rounded=1;orthogonalLoop=1;jettySize=auto;html=1;entryX=0.5;entryY=0;entryDx=0;entryDy=0;exitX=0;exitY=0.5;exitDx=0;exitDy=0;" edge="1" parent="77e6c97f196da883-2" source="ptDqCQcaFD3RVTo1rp9H-10" target="ptDqCQcaFD3RVTo1rp9H-8">
          <mxGeometry relative="1" as="geometry">
            <Array as="points">
              <mxPoint x="30" y="540" />
              <mxPoint x="30" y="370" />
              <mxPoint x="100" y="370" />
            </Array>
          </mxGeometry>
        </mxCell>
        <mxCell id="ptDqCQcaFD3RVTo1rp9H-10" value="serve input type, let manager customize input form field based on its type and label" style="whiteSpace=wrap;html=1;" vertex="1" parent="77e6c97f196da883-2">
          <mxGeometry x="40" y="510" width="120" height="60" as="geometry" />
        </mxCell>
        <mxCell id="ptDqCQcaFD3RVTo1rp9H-8" value="is fileds are empty?" style="rhombus;whiteSpace=wrap;html=1;" vertex="1" parent="77e6c97f196da883-2">
          <mxGeometry x="60" y="390" width="80" height="80" as="geometry" />
        </mxCell>
        <mxCell id="ptDqCQcaFD3RVTo1rp9H-1" value="start" style="ellipse;whiteSpace=wrap;html=1;" vertex="1" parent="77e6c97f196da883-2">
          <mxGeometry x="40" y="40" width="120" height="40" as="geometry" />
        </mxCell>
        <mxCell id="ptDqCQcaFD3RVTo1rp9H-3" value="" style="edgeStyle=orthogonalEdgeStyle;rounded=0;orthogonalLoop=1;jettySize=auto;html=1;" edge="1" parent="77e6c97f196da883-2" source="ptDqCQcaFD3RVTo1rp9H-1" target="ptDqCQcaFD3RVTo1rp9H-2">
          <mxGeometry relative="1" as="geometry" />
        </mxCell>
        <mxCell id="ptDqCQcaFD3RVTo1rp9H-2" value="create functions field type with its label" style="whiteSpace=wrap;html=1;" vertex="1" parent="77e6c97f196da883-2">
          <mxGeometry x="40" y="110" width="120" height="60" as="geometry" />
        </mxCell>
        <mxCell id="ptDqCQcaFD3RVTo1rp9H-5" value="" style="edgeStyle=orthogonalEdgeStyle;rounded=0;orthogonalLoop=1;jettySize=auto;html=1;" edge="1" parent="77e6c97f196da883-2" source="ptDqCQcaFD3RVTo1rp9H-2" target="ptDqCQcaFD3RVTo1rp9H-4">
          <mxGeometry relative="1" as="geometry" />
        </mxCell>
        <mxCell id="ptDqCQcaFD3RVTo1rp9H-4" value="create draggable element respective to the provided area" style="whiteSpace=wrap;html=1;" vertex="1" parent="77e6c97f196da883-2">
          <mxGeometry x="40" y="200" width="120" height="60" as="geometry" />
        </mxCell>
        <mxCell id="ptDqCQcaFD3RVTo1rp9H-7" value="" style="edgeStyle=orthogonalEdgeStyle;rounded=0;orthogonalLoop=1;jettySize=auto;html=1;" edge="1" parent="77e6c97f196da883-2" source="ptDqCQcaFD3RVTo1rp9H-4" target="ptDqCQcaFD3RVTo1rp9H-6">
          <mxGeometry relative="1" as="geometry" />
        </mxCell>
        <mxCell id="ptDqCQcaFD3RVTo1rp9H-6" value="make element sortable" style="whiteSpace=wrap;html=1;" vertex="1" parent="77e6c97f196da883-2">
          <mxGeometry x="40" y="290" width="120" height="60" as="geometry" />
        </mxCell>
        <mxCell id="ptDqCQcaFD3RVTo1rp9H-9" value="" style="edgeStyle=orthogonalEdgeStyle;rounded=0;orthogonalLoop=1;jettySize=auto;html=1;" edge="1" parent="77e6c97f196da883-2" source="ptDqCQcaFD3RVTo1rp9H-6" target="ptDqCQcaFD3RVTo1rp9H-8">
          <mxGeometry relative="1" as="geometry" />
        </mxCell>
        <mxCell id="ptDqCQcaFD3RVTo1rp9H-11" value="Yes" style="edgeStyle=orthogonalEdgeStyle;rounded=0;orthogonalLoop=1;jettySize=auto;html=1;" edge="1" parent="77e6c97f196da883-2" source="ptDqCQcaFD3RVTo1rp9H-8" target="ptDqCQcaFD3RVTo1rp9H-10">
          <mxGeometry relative="1" as="geometry" />
        </mxCell>
        <mxCell id="77e6c97f196da883-3" value="Controller" style="swimlane;html=1;startSize=20;" parent="77e6c97f196da883-1" vertex="1">
          <mxGeometry x="390" y="20" width="350" height="650" as="geometry" />
        </mxCell>
        <mxCell id="ptDqCQcaFD3RVTo1rp9H-25" style="edgeStyle=orthogonalEdgeStyle;rounded=1;orthogonalLoop=1;jettySize=auto;html=1;entryX=0.5;entryY=0;entryDx=0;entryDy=0;exitX=0;exitY=0.5;exitDx=0;exitDy=0;" edge="1" parent="77e6c97f196da883-3" source="ptDqCQcaFD3RVTo1rp9H-23" target="ptDqCQcaFD3RVTo1rp9H-21">
          <mxGeometry relative="1" as="geometry">
            <Array as="points">
              <mxPoint x="43" y="330" />
              <mxPoint x="28" y="330" />
              <mxPoint x="28" y="155" />
              <mxPoint x="103" y="155" />
            </Array>
          </mxGeometry>
        </mxCell>
        <mxCell id="ptDqCQcaFD3RVTo1rp9H-21" value="index &amp;lt; number of fields" style="rhombus;whiteSpace=wrap;html=1;" vertex="1" parent="77e6c97f196da883-3">
          <mxGeometry x="62.5" y="175" width="80" height="80" as="geometry" />
        </mxCell>
        <mxCell id="ptDqCQcaFD3RVTo1rp9H-19" value="conference id,&lt;br&gt;form types and its label &lt;br&gt;(array)" style="shape=parallelogram;perimeter=parallelogramPerimeter;whiteSpace=wrap;html=1;fixedSize=1;" vertex="1" parent="77e6c97f196da883-3">
          <mxGeometry x="27.5" y="85" width="150" height="60" as="geometry" />
        </mxCell>
        <mxCell id="ptDqCQcaFD3RVTo1rp9H-22" value="" style="edgeStyle=orthogonalEdgeStyle;rounded=1;orthogonalLoop=1;jettySize=auto;html=1;" edge="1" parent="77e6c97f196da883-3" source="ptDqCQcaFD3RVTo1rp9H-19" target="ptDqCQcaFD3RVTo1rp9H-21">
          <mxGeometry relative="1" as="geometry" />
        </mxCell>
        <mxCell id="ptDqCQcaFD3RVTo1rp9H-24" value="No" style="edgeStyle=orthogonalEdgeStyle;rounded=1;orthogonalLoop=1;jettySize=auto;html=1;" edge="1" parent="77e6c97f196da883-3" source="ptDqCQcaFD3RVTo1rp9H-21" target="ptDqCQcaFD3RVTo1rp9H-23">
          <mxGeometry relative="1" as="geometry" />
        </mxCell>
        <mxCell id="ptDqCQcaFD3RVTo1rp9H-23" value="push array data to array variable,&lt;br&gt;index++" style="whiteSpace=wrap;html=1;" vertex="1" parent="77e6c97f196da883-3">
          <mxGeometry x="42.5" y="305" width="120" height="60" as="geometry" />
        </mxCell>
        <mxCell id="ptDqCQcaFD3RVTo1rp9H-29" value="" style="edgeStyle=orthogonalEdgeStyle;rounded=1;orthogonalLoop=1;jettySize=auto;html=1;" edge="1" parent="77e6c97f196da883-3" source="ptDqCQcaFD3RVTo1rp9H-26" target="ptDqCQcaFD3RVTo1rp9H-28">
          <mxGeometry relative="1" as="geometry" />
        </mxCell>
        <mxCell id="ptDqCQcaFD3RVTo1rp9H-27" value="" style="edgeStyle=orthogonalEdgeStyle;rounded=1;orthogonalLoop=1;jettySize=auto;html=1;" edge="1" parent="77e6c97f196da883-3" source="ptDqCQcaFD3RVTo1rp9H-21" target="ptDqCQcaFD3RVTo1rp9H-26">
          <mxGeometry relative="1" as="geometry" />
        </mxCell>
        <mxCell id="ptDqCQcaFD3RVTo1rp9H-28" value="close" style="ellipse;whiteSpace=wrap;html=1;" vertex="1" parent="77e6c97f196da883-3">
          <mxGeometry x="202.5" y="315" width="120" height="50" as="geometry" />
        </mxCell>
        <mxCell id="ptDqCQcaFD3RVTo1rp9H-26" value="Insert batch form fields to database" style="whiteSpace=wrap;html=1;" vertex="1" parent="77e6c97f196da883-3">
          <mxGeometry x="202.5" y="185" width="120" height="60" as="geometry" />
        </mxCell>
        <mxCell id="ptDqCQcaFD3RVTo1rp9H-15" value="" style="edgeStyle=orthogonalEdgeStyle;rounded=0;orthogonalLoop=1;jettySize=auto;html=1;" edge="1" parent="1" source="ptDqCQcaFD3RVTo1rp9H-12" target="ptDqCQcaFD3RVTo1rp9H-14">
          <mxGeometry relative="1" as="geometry" />
        </mxCell>
        <mxCell id="ptDqCQcaFD3RVTo1rp9H-12" value="show submit button" style="whiteSpace=wrap;html=1;" vertex="1" parent="1">
          <mxGeometry x="270" y="460" width="120" height="60" as="geometry" />
        </mxCell>
        <mxCell id="ptDqCQcaFD3RVTo1rp9H-13" value="No" style="edgeStyle=orthogonalEdgeStyle;rounded=0;orthogonalLoop=1;jettySize=auto;html=1;" edge="1" parent="1" source="ptDqCQcaFD3RVTo1rp9H-8" target="ptDqCQcaFD3RVTo1rp9H-12">
          <mxGeometry relative="1" as="geometry" />
        </mxCell>
        <mxCell id="ptDqCQcaFD3RVTo1rp9H-16" value="No" style="edgeStyle=orthogonalEdgeStyle;rounded=1;orthogonalLoop=1;jettySize=auto;html=1;entryX=0.5;entryY=0;entryDx=0;entryDy=0;" edge="1" parent="1" source="ptDqCQcaFD3RVTo1rp9H-14" target="ptDqCQcaFD3RVTo1rp9H-8">
          <mxGeometry x="-0.8077" y="20" relative="1" as="geometry">
            <Array as="points">
              <mxPoint x="420" y="630" />
              <mxPoint x="420" y="430" />
              <mxPoint x="170" y="430" />
            </Array>
            <mxPoint x="20" y="-20" as="offset" />
          </mxGeometry>
        </mxCell>
        <mxCell id="ptDqCQcaFD3RVTo1rp9H-20" value="Yes" style="edgeStyle=orthogonalEdgeStyle;rounded=1;orthogonalLoop=1;jettySize=auto;html=1;exitX=0.5;exitY=1;exitDx=0;exitDy=0;entryX=0;entryY=0.25;entryDx=0;entryDy=0;" edge="1" parent="1" source="ptDqCQcaFD3RVTo1rp9H-14" target="ptDqCQcaFD3RVTo1rp9H-19">
          <mxGeometry x="-0.7108" relative="1" as="geometry">
            <Array as="points">
              <mxPoint x="330" y="690" />
              <mxPoint x="470" y="690" />
              <mxPoint x="470" y="163" />
            </Array>
            <mxPoint as="offset" />
          </mxGeometry>
        </mxCell>
        <mxCell id="ptDqCQcaFD3RVTo1rp9H-14" value="is submitted?" style="rhombus;whiteSpace=wrap;html=1;" vertex="1" parent="1">
          <mxGeometry x="290" y="590" width="80" height="80" as="geometry" />
        </mxCell>
      </root>
    </mxGraphModel>
  </diagram>
</mxfile>
